<svg width="25" height="19" viewBox="0 0 25 19" fill="none" xmlns="http://www.w3.org/2000/svg">
<path d="M24.751 4.52674C24.751 4.52674 24.5068 2.81137 23.7549 2.05816C22.8027 1.06684 21.7383 1.06198 21.25 1.00367C17.7539 0.750976 12.5049 0.750977 12.5049 0.750977H12.4951C12.4951 0.750977 7.24609 0.750976 3.75 1.00367C3.26172 1.06198 2.19727 1.06684 1.24512 2.05816C0.493164 2.81137 0.253906 4.52674 0.253906 4.52674C0.253906 4.52674 0 6.5434 0 8.55519V10.4406C0 12.4524 0.249023 14.4691 0.249023 14.4691C0.249023 14.4691 0.493164 16.1845 1.24023 16.9377C2.19238 17.929 3.44238 17.895 3.99902 18.0019C6.00098 18.1914 12.5 18.2497 12.5 18.2497C12.5 18.2497 17.7539 18.24 21.25 17.9922C21.7383 17.9339 22.8027 17.929 23.7549 16.9377C24.5068 16.1845 24.751 14.4691 24.751 14.4691C24.751 14.4691 25 12.4573 25 10.4406V8.55519C25 6.5434 24.751 4.52674 24.751 4.52674ZM9.91699 12.7294V5.73673L16.6699 9.24523L9.91699 12.7294Z" fill="#F3D0A6"/>
</svg>
