<svg xmlns="http://www.w3.org/2000/svg" xmlns:xlink="http://www.w3.org/1999/xlink" viewBox="0,0,256,256" width="50px" height="50px"><g fill="#ffffff" fill-rule="nonzero" stroke="none" stroke-width="1" stroke-linecap="butt" stroke-linejoin="miter" stroke-miterlimit="10" stroke-dasharray="" stroke-dashoffset="0" font-family="none" font-weight="none" font-size="none" text-anchor="none" style="mix-blend-mode: normal"><g transform="scale(5.12,5.12)"><path d="M36,3.99h-22c-5.51,0 -10,4.49 -10,10v22c0,5.51 4.49,10 10,10h22c5.51,0 10,-4.49 10,-10v-22c0,-5.51 -4.49,-10 -10,-10zM27,35c-0.55,0 -1,-0.45 -1,-1v-4c0,-0.55 0.45,-1 1,-1c3.86,0 7,-3.14 7,-7c0,-3.52 -2.61,-6.44 -6,-6.93v2.03c2.28,0.46 4,2.49 4,4.9c0,2.76 -2.24,5 -5,5c-0.55,0 -1,-0.45 -1,-1c0,-0.55 0.45,-1 1,-1c1.65,0 3,-1.35 3,-3c0,-1.65 -1.35,-3 -3,-3c-0.55,0 -1,-0.45 -1,-1v-4c0,-0.55 0.45,-1 1,-1c4.96,0 9,4.04 9,9c0,4.62 -3.51,8.45 -8,8.94v2.02c5.6,-0.51 10,-5.23 10,-10.96c0,-6.07 -4.93,-11 -11,-11h-3v29c0,0.55 -0.45,1 -1,1h-4c-0.55,0 -1,-0.45 -1,-1v-29h-2v29c0,0.55 -0.45,1 -1,1c-0.55,0 -1,-0.45 -1,-1v-30c0,-0.55 0.45,-1 1,-1h4c0.55,0 1,0.45 1,1v29h2v-29c0,-0.55 0.45,-1 1,-1h4c7.17,0 13,5.83 13,13c0,7.17 -5.83,13 -13,13z"></path></g></g></svg>